<svg id="Layer_1" enable-background="new 0 0 512 512" height="512" viewBox="0 0 512 512" width="512" xmlns="http://www.w3.org/2000/svg"><g><g><path d="m501.379 290.413c7.053-23.388 10.621-48.166 10.621-74.016 0-39.296-12.779-70.274-37.982-92.075-17.204-14.881-38.202-23.777-59.004-28.972-7.65-14.299-17.182-27.524-28.396-39.314-2.854-3-7.602-3.12-10.603-.265-3.001 2.854-3.12 7.602-.265 10.603 7.348 7.724 13.896 16.128 19.606 25.071-6.843-1.036-13.516-1.733-19.872-2.177-28.377-37.164-72.8-59.268-119.484-59.268-23.763 0-47.442 5.716-68.479 16.531-19.834 10.197-37.429 24.958-51.004 42.737-6.36.444-13.039 1.142-19.887 2.179 30.233-47.478 82.418-76.447 139.37-76.447 35.013 0 68.463 10.809 96.737 31.259 3.355 2.428 8.044 1.674 10.473-1.682 2.427-3.356 1.674-8.045-1.682-10.473-30.848-22.311-67.339-34.104-105.528-34.104-66.776 0-127.55 36.502-159.019 95.351-20.8 5.195-41.796 14.091-58.999 28.971-25.203 21.801-37.982 52.779-37.982 92.075 0 90.253 42.583 148.413 78.305 181.309 3.617 3.331 7.913 5.33 12.386 5.995 3.075 7.052 6.62 13.949 10.572 20.546 1.406 2.347 3.891 3.647 6.441 3.647 1.311 0 2.64-.344 3.847-1.067 3.553-2.128 4.708-6.734 2.58-10.288-3.059-5.107-5.845-10.414-8.338-15.832.088-.051.178-.095.265-.147 5.192-3.098 8.782-7.728 10.434-13.035 22.192 55.312 76.36 94.475 139.508 94.475s117.316-39.163 139.508-94.474c1.651 5.307 5.241 9.937 10.434 13.035.09.054.183.099.274.152-26.927 58.724-85.136 96.287-150.216 96.287-46.972 0-91.883-20.096-123.218-55.136-2.763-3.088-7.504-3.352-10.59-.591-3.087 2.761-3.352 7.503-.591 10.59 34.176 38.218 83.163 60.137 134.399 60.137 36.5 0 71.655-10.854 101.667-31.388 28.157-19.266 50.068-45.804 63.616-76.907 4.482-.661 8.789-2.662 12.413-5.999 10.794-9.941 20.616-20.781 29.392-32.337.207-.24.4-.491.575-.756 3.686-4.893 7.204-9.901 10.497-15.043 2.234-3.488 1.217-8.127-2.271-10.361-3.489-2.235-8.127-1.216-10.361 2.271-2.576 4.022-5.288 7.964-8.121 11.825-11.713 1.051-24.276 1.152-37.493.298 4.593-19.211 7.732-34.098 9.847-45.685 23.889-.84 42.66-4.223 56.553-7.961-1.833 4.887-3.817 9.708-5.99 14.445-1.727 3.765-.076 8.217 3.689 9.944 3.763 1.726 8.216.076 9.944-3.689 4.416-9.625 8.163-19.547 11.259-29.729.062-.168.113-.341.163-.515zm-21.514-137.116c-2.161 57.277-34.608 87.976-57.426 102.55-4.481-4.345-10.576-7.23-17.092-9.124 13.087-28.81 20.354-57.985 21.581-86.856.794-18.686-1.072-34.383-3.542-46.409 14.732 4.837 28.952 11.934 40.857 22.242 6.037 5.228 11.245 11.101 15.622 17.597zm-276.332 240.794c0-.054-.003-.107-.003-.161 0-16.837 9.237-37.297 22.377-50.988.661 1.114 1.349 2.212 2.074 3.279 8.086 11.895 18.506 18.446 29.34 18.446s21.253-6.551 29.339-18.446c.725-1.067 1.412-2.165 2.074-3.279 13.14 13.691 22.376 34.151 22.376 50.988 0 17.376-9.147 28.95-53.79 28.95-44.314 0-53.648-11.407-53.784-28.57 0-.073-.002-.146-.003-.219zm53.787-44.424c-12.512 0-25.221-21.166-25.221-36.379 0-7.41 1.929-14.062 25.221-14.062s25.22 6.652 25.22 14.062c.001 15.214-12.708 36.379-25.22 36.379zm66.236 25.74c-4.593-17.457-15.034-35.08-28.384-47.098 1.534-5.111 2.369-10.239 2.369-15.02 0-29.062-30.272-29.062-40.22-29.062s-40.221 0-40.221 29.062c0 4.781.835 9.909 2.369 15.02-13.938 12.547-24.705 31.203-28.958 49.4-27.094-29.804-55.329-73.312-65.066-119.06 6.494-.521 12.823-.446 17.37-.073 1.882.152 3.754-.401 5.242-1.564.793-.619 19.597-15.486 34.816-42.749 13.658-24.468 26.792-63.807 13.382-113.773 17.866-7.731 37.916-11.65 59.745-11.65s41.879 3.919 59.745 11.651c-13.41 49.966-.276 89.305 13.382 113.773 15.219 27.263 34.023 42.129 34.816 42.749 1.488 1.163 3.364 1.717 5.242 1.564 4.414-.369 10.78-.431 17.358.117-9.511 44.49-36.819 87.248-62.987 116.713zm-293.947-75.47c13.901 3.746 32.697 7.14 56.631 7.982 2.115 11.588 5.254 26.474 9.847 45.685-13.235.855-25.815.753-37.543-.303-10.973-14.928-21.17-32.639-28.935-53.364zm70.424.005c-.032-.383-.101-.754-.189-1.118-3.417-20.348-2.753-26.584-2.227-28.394.957-3.291 3.989-5.756 8.134-7.577v65.87c-2.586-11.78-4.425-21.219-5.718-28.781zm5.01-190.959c18.548-4.114 36.857-5.257 51.422-5.257 11.259 0 20.284.679 25.45 1.187 9.537 35.9 5.557 70.029-11.851 101.52-10.912 19.739-24.14 32.528-29.168 36.991-4.092-.201-11.179-.331-19.04.467-29.4-62.418-22.61-112.486-16.813-134.908zm301.913-.003c5.797 22.421 12.589 72.489-16.811 134.908-7.862-.798-14.95-.667-19.04-.465-5.038-4.471-18.261-17.258-29.169-36.991-17.408-31.491-21.388-65.62-11.851-101.521 11.849-1.162 43.983-3.225 76.871 4.069zm-.707 219.742v-65.801c4.152 1.813 7.189 4.257 8.134 7.508.526 1.811 1.191 8.047-2.226 28.396-.088.364-.157.735-.189 1.117-1.294 7.561-3.133 17.001-5.719 28.78zm-150.249-283.722c37.754 0 73.874 16.066 99.352 43.6-11.721.032-21.145.775-26.727 1.353-21.476-10.683-45.89-16.113-72.625-16.113s-51.149 5.43-72.624 16.113c-5.581-.578-14.999-1.32-26.715-1.353 25.477-27.514 61.656-43.6 99.339-43.6zm-208.243 90.7c11.905-10.309 26.125-17.4 40.856-22.237-2.469 12.026-4.334 27.72-3.541 46.404 1.227 28.871 8.494 58.046 21.581 86.857-6.516 1.893-12.611 4.778-17.092 9.123-22.818-14.573-55.266-45.273-57.426-102.55 4.377-6.496 9.585-12.369 15.622-17.597zm-27.686 43.399c4.093 20.369 12.259 38.828 24.436 55.105 12.465 16.661 26.812 27.887 38.049 34.956-.517 3.427-.709 9.893 1.215 23.648-27.312-1.234-47.059-5.934-59.863-10.253-5.561-19.631-8.908-41.628-8.908-66.158 0-13.614 1.702-26.058 5.071-37.298zm51.181 189.977c2.463.072 4.946.119 7.463.119 6.811 0 13.819-.269 20.987-.794.805 3.231 1.641 6.553 2.518 9.996 1.14 4.472-1.241 7.728-3.849 9.285-1.254.749-5.674 2.887-9.905-1.009-5.63-5.186-11.441-11.043-17.214-17.597zm184.748 97.924c-74.576 0-135.249-60.672-135.249-135.249v-36.998c15.997 41.118 43.291 78.071 67.903 102.763.989 15.278 8.403 26.328 22.096 32.864 10.868 5.187 25.23 7.5 46.569 7.5s35.702-2.313 46.569-7.5c14.51-6.925 21.964-18.922 22.198-35.645 23.562-24.314 49.657-60.318 65.161-100.075v37.092c.002 74.576-60.671 135.248-135.247 135.248zm177.285-97.806c2.5 0 4.966-.046 7.413-.117-5.393 6.134-11.11 12.019-17.164 17.594-4.231 3.897-8.651 1.757-9.905 1.009-2.608-1.557-4.989-4.813-3.849-9.285.877-3.443 1.714-6.765 2.518-9.996 7.168.527 14.175.795 20.987.795zm-5.056-76.386c1.923-13.754 1.731-20.221 1.214-23.648 11.237-7.069 25.584-18.295 38.049-34.956 12.177-16.277 20.343-34.735 24.436-55.105 3.369 11.24 5.071 23.684 5.071 37.298 0 23.08-3.023 45.222-8.974 66.181-12.804 4.313-32.531 8.999-59.796 10.23z"/><path d="m203.764 268.014-13.245-10c-3.306-2.495-8.008-1.839-10.505 1.467-2.496 3.306-1.839 8.009 1.467 10.505l13.245 10c1.353 1.021 2.939 1.515 4.513 1.515 2.272 0 4.517-1.028 5.992-2.981 2.496-3.307 1.839-8.01-1.467-10.506z"/><path d="m321.481 258.014-13.245 10c-3.306 2.496-3.962 7.199-1.467 10.505 1.475 1.953 3.719 2.981 5.992 2.981 1.573 0 3.161-.494 4.513-1.515l13.245-10c3.306-2.496 3.962-7.199 1.467-10.505-2.495-3.304-7.198-3.961-10.505-1.466z"/></g></g></svg>