<svg height="511pt" viewBox="0 0 511.90828 511" width="511pt" xmlns="http://www.w3.org/2000/svg"><path d="m210.257812 209.996094c-3.414062 2.015625-6.929687 4.269531-10.328124 6.75-3.394532 2.484375-6.601563 5.035156-9.769532 7.808594-3.164062 2.773437-6.203125 5.667968-9.15625 8.730468-2.253906 2.164063-3.148437 5.386719-2.324218 8.402344.820312 3.015625 3.226562 5.339844 6.269531 6.058594 3.039062.722656 6.230469-.28125 8.316406-2.609375 2.628906-2.703125 5.335937-5.296875 8.132813-7.738281 2.800781-2.441407 5.632812-4.71875 8.535156-6.828126 2.902344-2.105468 5.972656-4.085937 8.890625-5.808593 2.636719-1.535157 4.253906-4.359375 4.242187-7.40625-.007812-3.050781-1.644531-5.863281-4.292968-7.378907-2.644532-1.515624-5.898438-1.503906-8.535157.03125zm0 0"/><path d="m215.726562 411.683594c-3.082031-1.101563-6.085937-2.339844-9.003906-3.6875-2.917968-1.347656-5.742187-2.796875-8.472656-4.367188-2.730469-1.570312-5.359375-3.226562-7.894531-5.011718-2.53125-1.78125-4.949219-3.625-7.261719-5.585938-2.3125-1.964844-4.488281-3.996094-6.558594-6.128906-2.074218-2.132813-4.019531-4.335938-5.839844-6.605469-1.800781-2.261719-3.488281-4.613281-5.050781-7.046875-1.550781-2.402344-2.976562-4.882812-4.265625-7.433594-1.257812-2.527344-2.378906-5.117187-3.355468-7.765625-1.953126-5.296875-3.28125-10.804687-3.957032-16.410156-.328125-2.847656-.484375-5.714844-.480468-8.582031.003906-3.234375.195312-6.464844.5625-9.679688.402343-3.371094.972656-6.726562 1.707031-10.042968.734375-3.414063 1.644531-6.824219 2.722656-10.238282 1.074219-3.414062 2.3125-6.90625 3.714844-10.335937 1.398437-3.429688 2.960937-6.824219 4.648437-10.238281 1.390625-2.730469 1.210938-6-.46875-8.558594-1.683594-2.5625-4.609375-4.023438-7.667968-3.832032-3.058594.191407-5.78125 2.007813-7.128907 4.761719-1.894531 3.78125-3.625 7.609375-5.1875 11.449219-1.5625 3.84375-2.988281 7.765625-4.207031 11.667969-1.222656 3.898437-2.269531 7.859375-3.105469 11.75-.851562 3.871093-1.5 7.785156-1.945312 11.722656-.457031 3.84375-.695313 7.707031-.710938 11.574219 0 3.546875.214844 7.089844.640625 10.613281.417969 3.472656 1.035156 6.917969 1.851563 10.316406 1.640625 6.738281 4.035156 13.269531 7.144531 19.464844 1.546875 3.089844 3.253906 6.09375 5.117188 9.003906 1.871093 2.914063 3.898437 5.738281 6.078124 8.480469 2.175782 2.742188 4.492188 5.367188 6.945313 7.867188 2.457031 2.515624 5.046875 4.929687 7.765625 7.238281 2.703125 2.296875 5.546875 4.488281 8.53125 6.554687 2.988281 2.0625 6.015625 4.019532 9.191406 5.835938 3.175782 1.816406 6.453125 3.515625 9.820313 5.066406 3.371093 1.554688 6.828125 2.972656 10.378906 4.269531.921875.339844 1.898437.511719 2.882813.511719 4.15625.007812 7.714843-2.976562 8.429687-7.070312.710937-4.09375-1.628906-8.105469-5.542969-9.503907zm0 0"/><path d="m303.253906 230.554688c2.917969 2.125 5.777344 4.421874 8.53125 6.828124 2.757813 2.40625 5.503906 5.03125 8.132813 7.738282 3.3125 3.175781 8.539062 3.164062 11.839843-.023438 3.296876-3.1875 3.484376-8.414062.421876-11.828125-2.949219-3.066406-6.003907-5.980469-9.15625-8.738281-3.164063-2.765625-6.425782-5.378906-9.769532-7.800781-3.328125-2.421875-6.773437-4.671875-10.324218-6.75-4.070313-2.242188-9.183594-.820313-11.507813 3.199219-2.328125 4.023437-1.007813 9.164062 2.964844 11.574218 2.910156 1.703125 5.90625 3.660156 8.867187 5.800782zm0 0"/><path d="m367.046875 373.453125c1.554687-3.082031 2.9375-6.246094 4.140625-9.480469 1.199219-3.25 2.207031-6.570312 3.019531-9.941406 1.65625-6.855469 2.496094-13.886719 2.5-20.941406-.007812-3.871094-.234375-7.738282-.671875-11.585938-.449218-3.941406-1.101562-7.859375-1.945312-11.734375-.855469-3.898437-1.886719-7.824219-3.109375-11.75-1.21875-3.925781-2.625-7.78125-4.207031-11.664062-1.578126-3.882813-3.292969-7.679688-5.1875-11.453125-1.347657-2.75-4.066407-4.570313-7.125-4.761719-3.058594-.191406-5.988282 1.269531-7.667969 3.832031-1.683594 2.5625-1.863281 5.828125-.472657 8.558594 1.707032 3.414062 3.25 6.828125 4.652344 10.238281 1.398438 3.414063 2.636719 6.878907 3.710938 10.335938 1.074218 3.457031 1.988281 6.828125 2.722656 10.238281.738281 3.316406 1.308594 6.664062 1.707031 10.035156.367188 3.214844.554688 6.445313.5625 9.679688 0 8.527344-1.515625 16.984375-4.472656 24.984375-.972656 2.652343-2.09375 5.246093-3.359375 7.773437-1.273438 2.550782-2.683594 5.027344-4.226562 7.425782-1.558594 2.433593-3.246094 4.789062-5.050782 7.046874-1.816406 2.277344-3.773437 4.488282-5.835937 6.613282-2.066407 2.125-4.269531 4.171875-6.570313 6.128906-2.304687 1.953125-4.738281 3.828125-7.253906 5.597656-2.519531 1.765625-5.164062 3.410156-7.894531 5-2.730469 1.585938-5.5625 3.027344-8.472657 4.375-2.910156 1.351563-5.972656 2.5625-9.011718 3.679688-3.914063 1.394531-6.253906 5.40625-5.542969 9.5.710937 4.097656 4.269531 7.082031 8.425781 7.070312.988282.003906 1.96875-.171875 2.894532-.511718 3.550781-1.269532 7.015624-2.695313 10.375-4.265626 3.363281-1.570312 6.65625-3.25 9.816406-5.070312 3.15625-1.816406 6.253906-3.761719 9.195312-5.828125 2.945313-2.0625 5.804688-4.265625 8.535156-6.5625 2.730469-2.292969 5.308594-4.71875 7.765626-7.234375 2.457031-2.519531 4.769531-5.121094 6.945312-7.875 2.167969-2.722656 4.195312-5.550781 6.078125-8.476562 1.832031-2.902344 3.511719-5.898438 5.03125-8.976563zm0 0"/><path d="m511.398438 385.964844c.058593-.171875.136718-.332032.1875-.511719.835937-2.941406.015624-6.105469-2.140626-8.269531-.191406-.144532-.390624-.273438-.597656-.394532-.269531-.214843-.554687-.414062-.855468-.585937-.609376-.425781-1.269532-.761719-1.96875-1.007813-.355469-.09375-.714844-.164062-1.078126-.207031-.671874-.144531-1.363281-.207031-2.054687-.1875-.449219.050781-.894531.140625-1.332031.265625-.621094.121094-1.230469.3125-1.808594.570313-.152344.078125-.324219.070312-.46875.148437-2.746094 1.527344-64.417969 34.984375-103.886719 14.378906 1.324219-2.5625 2.5625-5.121093 3.695313-7.734374 12.996094-1.917969 25.796875-4.984376 38.246094-9.171876.5625-.132812 1.109374-.324218 1.632812-.5625 20.308594-6.398437 38.4375-18.316406 52.367188-34.425781 3.023437-3.683593 5.734374-7.613281 8.105468-11.75 23.648438-41.71875 4.089844-88.488281 3.253906-90.453125-1.480468-3.335937-4.894531-5.386718-8.535156-5.121094-3.648437.296876-6.703125 2.882813-7.59375 6.4375-.238281.902344-22.808594 87.191407-77.242187 87.832032-.953125-13.761719-3.703125-27.339844-8.175781-40.386719 14.382812-5.789063 27.859374-13.621094 40.011718-23.253906l.050782-.0625c19.5-15.34375 33.367187-36.71875 39.433593-60.78125.710938-1.21875 1.101563-2.597657 1.132813-4.011719 0-.144531-.074219-.273438-.082032-.417969 3.761719-18.59375 3.65625-37.765625-.308593-56.320312 1.152343-2.246094 2.117187-4.589844 2.882812-6.996094 3.972657-14.070313 2.003907-29.152344-5.453125-41.726563-.878906-1.535156-1.847656-3.015624-2.898437-4.4375-.070313-.128906-.144531-.238281-.222657-.359374-8.398437-17.3125-34.910156-58.367188-105.8125-85.445313-3.523437-1.34375-7.511718-.21875-9.8125 2.769531-2.296874 2.992188-2.359374 7.132813-.15625 10.195313 13.988282 19.875 25.5 41.386719 34.277344 64.050781-1.570312 1.8125-2.996094 3.746094-4.265625 5.785156-20.667969 2.035156-41.445312-2.660156-59.230469-13.390625-2.964843-2.238281-7.035156-2.300781-10.066406-.15625-3.035156 2.144531-4.332031 6.003907-3.210937 9.542969.964843 2.953125 23.28125 68.917969 86.835937 77.449219 4.71875 17.570312 2.617188 36.277343-5.886718 52.359375-.078126.121094-.136719.242187-.207032.367187-5.390625 10.070313-12.394531 19.1875-20.734375 26.992188-6.726562-9.988281-14.332031-19.347657-22.734375-27.972657 5.742188-1.878906 10.617188-5.757812 13.738282-10.929687 8.355468-14.507813.308593-34.332031-18.304688-45.082031-9.542969-5.894532-21.023438-7.792969-31.957031-5.28125-6.78125 1.660156-12.617188 5.960937-16.210938 11.945312-1.992187 3.425782-3.125 7.285156-3.304687 11.246094-27.347656-11.074219-57.933594-11.074219-85.28125 0-.132813-3.992188-1.25-7.890625-3.25-11.347656-8.320313-14.507813-29.464844-17.433594-48.207032-6.71875-18.59375 10.804687-26.632812 30.601562-18.285156 45.125 3.179688 5.164062 8.085938 9.039062 13.847656 10.933594-8.480468 8.675781-16.160156 18.101562-22.945312 28.160156-8.273438-7.746094-15.234375-16.785156-20.605469-26.761719-.128906-.246094-.25-.488281-.402343-.734375-2.589844-5.09375-4.605469-10.460938-6.015626-16-.011718-.0625-.023437-.121094-.042968-.179688-2.980469-11.84375-2.878906-24.25.296875-36.042968 63.558593-8.535156 85.871093-74.496094 86.835937-77.449219 1.179688-3.554687-.097656-7.464844-3.148437-9.640625-3.050781-2.171875-7.164063-2.101562-10.136719.175781-17.808594 10.785157-38.644531 15.488281-59.359375 13.398438-1.265625-2.042969-2.691406-3.980469-4.265625-5.792969 8.78125-22.664062 20.289062-44.175781 34.277344-64.050781 2.203125-3.058594 2.136718-7.199219-.15625-10.1875-2.296875-2.988281-6.28125-4.117188-9.800782-2.777344-70.859374 27.078125-97.375 68.132813-105.769531 85.445313-.078125.121093-.15625.230468-.222656.359374-1.050781 1.417969-2.019531 2.894532-2.894531 4.425782-7.457032 12.578125-9.433594 27.664062-5.460938 41.738281.765625 2.40625 1.730469 4.75 2.886719 6.996094-3.972656 18.589843-4.070313 37.796875-.292969 56.421875 0 .113281-.058594.207031-.058594.316406.027344 1.375.398438 2.722656 1.074219 3.917969 7.59375 30.105469 28.613281 63.035156 79.558594 84.121093-4.476563 13.050782-7.226563 26.632813-8.175781 40.398438-54.621094-.53125-77.066406-86.929688-77.320313-87.84375-.882812-3.5625-3.945312-6.167969-7.605469-6.460938-3.636718-.257812-7.046874 1.789063-8.53125 5.121094-.855468 1.972656-20.402343 48.742188 3.242188 90.453125 2.378906 4.140625 5.09375 8.078125 8.125 11.769531 13.929688 16.113282 32.066406 28.035157 52.382812 34.429688.519532.242188 1.058594.429688 1.613282.5625 12.484375 4.199219 25.3125 7.273438 38.339844 9.191406 1.140624 2.601563 2.363281 5.160156 3.671874 7.679688-39.484374 20.695312-101.1875-12.800782-103.9375-14.328125-.128906-.066407-.273437-.066407-.398437-.125-.71875-.347657-1.480469-.589844-2.261719-.71875-.28125-.066407-.566406-.117188-.855468-.152344-.835938-.054687-1.675782.019531-2.492188.222656-.1875.109375-.417969.109375-.664062.195313-.753907.257812-1.464844.625-2.117188 1.082031-.292969.164063-.578125.34375-.851562.539063-.1875.160156-.429688.230468-.605469.410156-1.351563 1.363281-2.1875 3.148437-2.3750002 5.058594-.00781255.164062-.00781255.332031 0 .496093-.0429688.816407.0273437 1.636719.2148432 2.433594.078126.3125.171876.605469.273438.902344.101562.300781.128906.570312.253906.855469 1.972656 4.351562 20.730469 44.714843 61.953125 58.109374 8.683594 2.832032 17.761719 4.273438 26.898438 4.269532 21.226562-.671875 41.929687-6.769532 60.132812-17.71875 2.296875 1.964844 4.632813 3.875 7.058594 5.710937-20.226563 35.207031-75.09375 52.949219-75.667969 53.136719-3.492187 1.101562-5.890625 4.3125-5.960937 7.976562-.070313 3.660157 2.207031 6.957032 5.65625 8.195313 12.175781 3.800781 24.863281 5.71875 37.621093 5.691406 35.835938 1.261719 69.035157-18.761719 84.636719-51.046875 34.308594 11.347656 71.359375 11.347656 105.667969 0 15.621094 32.273438 48.828125 52.269532 84.65625 50.984375 12.761719.03125 25.453125-1.890625 37.632812-5.691406 3.480469-1.21875 5.785157-4.535156 5.710938-8.222656s-2.507812-6.910157-6.035156-7.988281c-.578125-.179688-55.355469-17.820313-75.628906-53.078126 2.429687-1.835937 4.777343-3.761718 7.082031-5.734374 18.1875 10.96875 38.886719 17.089843 60.117187 17.785156 9.117188.019531 18.179688-1.398438 26.855469-4.207032 39.96875-12.980468 58.878906-51.40625 61.71875-57.671874.226563-.46875.410156-.960938.539063-1.464844zm-93.363282 27.707031v18.320313c-15.042968-1.207032-29.660156-5.570313-42.90625-12.800782 4.101563-4.53125 7.894532-9.332031 11.359375-14.367187 9.761719 5.164062 20.519531 8.179687 31.546875 8.847656zm-8.976562-71.375c5.90625.027344 11.792968-.71875 17.511718-2.21875v18.835937c-6.945312 2.082032-13.996093 3.792969-21.121093 5.117188 1.855469-7.121094 3.0625-14.394531 3.609375-21.734375zm84.335937-72.8125c2.21875 16.71875-.859375 33.710937-8.808593 48.589844-.160157.289062-.390626.542969-.5625.851562l-11.945313-11.945312c8.605469-11.585938 15.761719-24.175781 21.316406-37.496094zm-32.609375 50.335937 12.648438 12.65625c-8.585938 8.503907-18.707032 15.296876-29.824219 20.027344v-19.625c6.246094-3.621094 12.015625-8.007812 17.175781-13.058594zm-23.472656-77.652343-21.835938-29.125c1.136719-2.523438 2.191407-5.132813 3.164063-7.824219h43c-5.085937 14.066406-13.414063 26.734375-24.304687 36.984375zm2.292969-76.457031c7.449219.03125 14.800781-1.675782 21.472656-4.984376 2.023437-1.085937 3.964844-2.324218 5.808594-3.695312 1.125 10.363281.839843 20.835938-.851563 31.121094h-43.128906c1.191406-8.402344 1.136719-16.933594-.152344-25.316406 5.433594 1.859374 11.132813 2.84375 16.878906 2.90625zm-50.15625-137.363282c48.640625 25.082032 66.558593 56.21875 71.269531 66.261719.113281.238281.238281.472656.375.699219.203125.378906.441406.738281.707031 1.078125.835938 1.085937 1.59375 2.222656 2.273438 3.410156 5.113281 8.503906 6.523437 18.730469 3.898437 28.296875-2.210937 7.574219-7.46875 13.886719-14.515625 17.425781-18.144531 7.550781-39.050781.007813-48.1875-17.390625-8.613281-13.085937-6.765625-30.441406 4.410157-41.421875 2.5-2.226562 3.464843-5.710937 2.46875-8.90625-5.726563-17.269531-13.339844-33.851562-22.699219-49.453125zm-46.082031 66.835938c13.015624 4.148437 26.621093 6.148437 40.277343 5.921875-1.902343 12.246093.484375 24.773437 6.757813 35.464843-19.9375-8.015624-36.523438-22.628906-46.992188-41.398437zm62.910156 134.089844 17.816406 23.765624c-9.097656 6.339844-18.867188 11.652344-29.132812 15.847657-2.558594-5.761719-5.34375-11.453125-8.457032-17.066407 7.4375-6.738281 14.085938-14.304687 19.816406-22.546874zm-89.601563-60.988282c1.355469-2.050781 3.457031-3.492187 5.863281-4.007812 6.554688-1.296875 13.355469-.019532 18.996094 3.566406 10.878906 6.289062 15.085938 16.535156 12.039063 21.835938-2.304688 4.0625-8.960938 5.503906-16.324219 3.703124-5.902344-4.691406-12.125-8.96875-18.621094-12.800781-2.832031-3.441406-3.5625-8.15625-1.910156-12.296875zm-146.269531-.679687c10.929688-6.246094 21.898438-4.789063 24.917969.484375 1.699219 4.285156.847656 9.164062-2.203125 12.621094-6.34375 3.75-12.425782 7.925781-18.199219 12.5-5.753906 2.253906-12.296875.738281-16.472656-3.8125-3.042969-5.257813 1.179687-15.503907 12-21.792969zm-125.347656-10.539063c1.84375 1.371094 3.789062 2.605469 5.8125 3.695313 6.667968 3.3125 14.023437 5.019531 21.46875 4.980469 5.746094-.050782 11.441406-1.023438 16.878906-2.875-1.289062 8.386718-1.339844 16.917968-.152344 25.320312h-43.1875c-1.679687-10.289062-1.957031-20.757812-.820312-31.121094zm123.511718-61.894531c-10.480468 18.777344-27.085937 33.390625-47.042968 41.398437 6.273437-10.683593 8.664062-23.207031 6.765625-35.449218 13.660156.222656 27.265625-1.785156 40.277343-5.949219zm-120.660156 4.601563c.675782-1.1875 1.429688-2.328126 2.261719-3.414063.265625-.335937.503906-.695313.707031-1.074219.136719-.226562.261719-.460937.375-.699218 4.738282-10.046876 22.664063-41.183594 71.273438-66.261719-9.371094 15.613281-16.988282 32.210937-22.71875 49.492187-.984375 3.195313-.011719 6.671875 2.484375 8.890625 11.175781 10.980469 13.023437 28.335938 4.410156 41.421875-9.140625 17.394532-30.042969 24.9375-48.1875 17.390625-7.042969-3.542969-12.296875-9.855469-14.503906-17.425781-2.632813-9.574219-1.222657-19.8125 3.898437-28.320312zm2.421875 105.480468h43c.960938 2.707032 2.027344 5.328125 3.191407 7.859375l-21.859376 29.113281c-10.902343-10.242187-19.238281-22.910156-24.332031-36.972656zm37.546875 47.785156 17.800782-23.722656c5.710937 8.234375 12.34375 15.792969 19.765624 22.527344-3.117187 5.574219-5.972656 11.265625-8.457031 17.066406-10.257812-4.203125-20.019531-9.527344-29.109375-15.871094zm-69.339844 16.554688c5.550782 13.273438 12.695313 25.824219 21.273438 37.375l-11.945312 11.949219c-.15625-.25-.351563-.46875-.496094-.71875-7.964844-14.878907-11.050782-31.882813-8.832032-48.613281zm19.898438 62.890625 12.636719-12.644531c5.160156 5.058594 10.929687 9.453125 17.179687 13.082031v19.625c-11.121094-4.738281-21.238281-11.550781-29.816406-20.070313zm46.882812 26.429687v-18.835937c5.742188 1.507813 11.660157 2.253906 17.597657 2.21875.542969 7.355469 1.75 14.644531 3.609375 21.777344-7.15625-1.335938-14.238282-3.058594-21.207032-5.160157zm51.492188 60.246094c-13.257812 7.25-27.898438 11.625-42.957031 12.832032v-18.3125c11.050781-.671876 21.832031-3.707032 31.613281-8.898438 3.460938 5.035156 7.246094 9.839844 11.34375 14.378906zm-105.6875-16.367187c14.664062 5.636719 30.023438 9.261719 45.660156 10.765625v17.488281c-2.976562-.542969-5.917968-1.285156-8.796875-2.21875-14.476562-5.066406-27.246093-14.085937-36.863281-26.035156zm82.234375 92.59375c9.835937-4.894531 19.226563-10.636719 28.058594-17.167969l10.523437 10.519531c-12.15625 5.234375-25.375 7.515625-38.582031 6.648438zm53.566406-15.796875-12.417969-12.414063c6.363282-6.019531 11.890626-12.863281 16.4375-20.351562 5.226563 3.0625 10.621094 5.824219 16.160157 8.277343-5.019531 9.429688-11.882813 17.757813-20.179688 24.488282zm-47.472656-146.53125c.242187-16.796875 3.453125-33.417969 9.480469-49.09375.515625-.601563.800781-1.359375.8125-2.152344 3.546875-9.101562 7.828125-17.898438 12.800781-26.304688.074219-.085937.195313-.121093.269531-.214843.507813-.675781.910156-1.429688 1.1875-2.226563 10.214844-16.917968 23.195313-32 38.398438-44.621094.539062-.339843 1.039062-.742187 1.488281-1.195312 6.269531-5.046875 12.960937-9.546875 20-13.457031.078125 0 .164063-.078125.238281-.128907 15.828125-8.964843 33.667969-13.785156 51.859375-14.011718 18.101563.21875 35.855469 4.992187 51.625 13.882812l.128907.0625c7.308593 4.03125 14.25 8.699219 20.734374 13.949219.378907.375.792969.707031 1.238282 1 15.15625 12.59375 28.101562 27.632813 38.296875 44.492187.28125.800782.679687 1.550782 1.1875 2.226563.078125.09375.195312.128906.273437.214844 4.957032 8.410156 9.222656 17.207031 12.757813 26.308593.019531.792969.324219 1.554688.851562 2.148438 6.015625 15.691406 9.210938 32.320312 9.4375 49.121094 0 65.976562-61.25 119.660156-136.53125 119.660156s-136.535156-53.683594-136.535156-119.660156zm240.425781 155.75 10.589844-10.589844c8.882812 6.5625 18.320312 12.332031 28.210938 17.246094-13.277344.910156-26.582032-1.371094-38.800782-6.65625zm-2.5-21.632813-12.449218 12.449219c-8.28125-6.738281-15.128907-15.070312-20.136719-24.5 5.539062-2.445312 10.941406-5.207031 16.167969-8.265625 4.542968 7.472656 10.066406 14.304687 16.417968 20.316406zm86.488282-38.347656c-2.871094.933594-5.796876 1.671875-8.765626 2.207031v-17.492187c15.632813-1.503907 30.992188-5.125 45.652344-10.761719-9.617187 11.964844-22.398437 20.988281-36.886718 26.046875zm0 0"/></svg>