<svg height="512pt" viewBox="0 0 512 512.00016" width="512pt" xmlns="http://www.w3.org/2000/svg"><path d="m.105469 163.3125c.121093.886719.382812 1.753906.777343 2.558594.066407.128906.085938.28125.152344.402344.375.671874 31.847656 55.789062 93.292969 55.789062 11.46875-.085938 22.863281-1.878906 33.800781-5.316406.734375 32.921875 14.246094 64.261718 37.675782 87.398437 14.320312 14.808594 22.191406 34.683594 21.886718 55.28125v24.574219c-.070312 18.460938 7.402344 36.152344 20.6875 48.972656 1.578125 1.535156 3.214844 2.976563 4.914063 4.34375v47.316406c-.003907 5.179688 3.117187 9.851563 7.902343 11.832032 4.785157 1.980468 10.289063.886718 13.953126-2.777344l2.070312-2.082031 8.089844 14.703125c2.378906 3.558594 6.375 5.691406 10.652344 5.691406 4.523437-.058594 8.695312-2.449219 11.03125-6.324219l7.679687-14.078125 2.082031 2.089844c3.660156 3.675781 9.175782 4.78125 13.96875 2.796875 4.792969-1.984375 7.914063-6.664063 7.902344-11.851563v-48.160156c16.226562-13.640625 25.59375-33.75 25.601562-54.945312v-23.347656c.375-21.078126 8.945313-41.183594 23.894532-56.046876 22.132812-23.003906 34.84375-53.472656 35.617187-85.386718 10.957031 3.453125 22.363281 5.25 33.851563 5.335937 61.441406 0 92.917968-55.117187 93.292968-55.792969.0625-.121093.078126-.253906.136719-.367187.398438-.804687.664063-1.667969.785157-2.558594 0-.121093.09375-.207031.105468-.324219.007813-.121093-.0625-.386718-.0625-.589843.027344-.746094-.050781-1.492188-.21875-2.21875-.0625-.304688-.144531-.601563-.242187-.894531-.277344-.761719-.664063-1.480469-1.140625-2.132813-.121094-.15625-.1875-.335937-.308594-.480469-.121094-.144531-.050781-.101562-.09375-.152344-15.511719-19.210937-38.257812-31.175781-62.875-33.085937-35.472656-2.191406-66.617188 17.707031-79.476562 27.308594-.472657-.855469-.855469-1.707031-1.359376-2.484375.582032-1.296875.824219-2.722656.699219-4.136719-7.839843-70.554687 80.546875-127.832031 81.433594-128.402344 3.238281-2.023437 4.738281-5.949219 3.675781-9.613281s-4.433594-6.1796875-8.25-6.15625c-126.523437 0-155.570312 70.261719-160.910156 88.15625-3.902344-.851562-7.851562-1.515625-11.863281-1.96875-13.933594-1.570312-28.03125-.863281-41.734375 2.097656-5.25-17.699218-34.132813-88.285156-160.957032-88.285156-3.789062.00390625-7.125 2.507812-8.183593 6.144531-1.0625 3.640625.40625 7.542969 3.601562 9.582031.851563.570313 89.273438 57.847657 81.433594 128.402344-.121094 1.425782.125 2.859375.714844 4.164063-.476563.808593-.902344 1.628906-1.363281 2.449219-12.800782-9.652344-43.980469-29.601563-79.488282-27.308594-24.617187 1.90625-47.359375 13.871094-62.875 33.078125l-.085937.144531c-.144531.160156-.210938.367188-.339844.535156-.46875.636719-.84375 1.335938-1.117187 2.074219-.101563.304687-.183594.617187-.238282.929687-.171875.71875-.2460935 1.457032-.222656 2.195313 0 .203125-.078125.390625-.05859375.597656.01562495.203125.08203125.210938.10156275.324219zm24.488281 6.824219c22.964844.25 66.324219 4.695312 90.667969 32.214843-33.914063 7.949219-69.347657-4.625-90.667969-32.171874zm256.964844 304.316406c-2.59375-2.015625-5.859375-2.960937-9.128906-2.644531-4.054688.449218-7.667969 2.765625-9.769532 6.261718l-6.699218 12.265626-7.09375-12.871094c-1.96875-2.960938-5.085938-4.96875-8.597657-5.539063-3.511719-.570312-7.101562.34375-9.910156 2.527344v-27.136719c8.136719 3.285156 16.828125 4.964844 25.601563 4.949219h2.019531c8.125-.269531 16.121093-2.0625 23.578125-5.289063zm115.109375-272.058594c24.292969-27.433593 67.660156-31.914062 90.640625-32.195312-21.316406 27.535156-56.730469 40.117187-90.640625 32.195312zm49.242187-61.9375c12.667969.84375 24.835938 5.253907 35.097656 12.726563-27.382812 1.03125-72.308593 7.96875-98.753906 39.746094-1.410156-9.070313-3.808594-17.957032-7.160156-26.503907 8.507812-6.757812 37.929688-27.964843 70.816406-25.96875zm-139.492187-63.808593c.242187.0625.492187.113281.742187.152343 7.011719-.09375 13.875 2.015625 19.625 6.03125 3.351563 3.234375 8.671875 3.1875 11.964844-.101562 3.289062-3.292969 3.335938-8.613281.101562-11.964844-5.820312-5.25-13.054687-8.679687-20.804687-9.863281 6.449219-7.082032 13.800781-13.289063 21.863281-18.457032.222656 0 .417969.160157.640625.1875.699219.238282 5.121094 2.117188 10.238281 12.382813 2.109376 4.21875 7.234376 5.929687 11.453126 3.820313 4.21875-2.105469 5.929687-7.230469 3.824218-11.449219-2.480468-5.136719-5.773437-9.839844-9.753906-13.925781 19.050781-8.378907 39.371094-13.5 60.117188-15.148438-25.164063 21.09375-62.625 60.160156-66.738282 108.132812-13.933594-15.046874-31.253906-26.550781-50.527344-33.550781 1.777344-5.679687 4.210938-11.132812 7.253907-16.246093zm-37.4375 26.492187c41.839843 4.949219 77.265625 33.171875 91.441406 72.84375 14.171875 39.675781 4.652344 83.953125-24.582031 114.292969-18.027344 18.042968-28.316406 42.398437-28.679688 67.902344v23.347656c.464844 28.296875-21.425781 51.945312-49.671875 53.671875-13.84375.414062-27.261719-4.796875-37.195312-14.445313-9.9375-9.644531-15.539063-22.90625-15.53125-36.753906v-24.574219c.296875-25.152343-9.390625-49.394531-26.941407-67.414062-31.835937-31.648438-41.464843-79.359375-24.390624-120.875 17.074218-41.515625 57.488281-68.648438 102.375-68.738281 4.402343 0 8.804687.246093 13.175781.742187zm-173.445313-84.828125c20.730469 1.652344 41.035156 6.773438 60.074219 15.148438-3.960937 4.089843-7.230469 8.792968-9.6875 13.925781-2.105469 4.21875-.394531 9.34375 3.824219 11.449219 4.21875 2.109374 9.34375.398437 11.449218-3.820313 5.121094-10.242187 9.535157-12.144531 10.242188-12.382813.230469 0 .417969-.144531.640625-.1875 8.0625 5.167969 15.414063 11.375 21.863281 18.457032-7.75 1.183594-14.984375 4.613281-20.804687 9.863281-2.21875 2.144531-3.109375 5.316406-2.328125 8.300781s3.109375 5.3125 6.09375 6.09375 6.15625-.109375 8.300781-2.328125c5.730469-4 12.566406-6.109375 19.558594-6.03125.253906 0 .46875-.128906.722656-.144531 3.070313 5.160156 5.519531 10.664062 7.296875 16.398438-15.484375 5.460937-29.761719 13.863281-42.050781 24.75-3.015625 2.675781-5.820313 5.535156-8.535157 8.472656-4.148437-47.882813-41.566406-86.886719-66.660156-107.964844zm-29.621094 122.15625c32.863282-2.066406 62.761719 19.515625 71.089844 26.117188-3.355468 8.535156-5.78125 17.402343-7.242187 26.457031-26.453125-31.875-71.433594-38.828125-98.851563-39.859375 10.238282-7.453125 22.371094-11.859375 35.003906-12.714844zm0 0"/><path d="m162.09375 213.332031c0 4.714844 3.820312 8.535157 8.53125 8.535157 10.691406.140624 21.132812 3.234374 30.175781 8.933593-13.433593 2.128907-22.84375 14.40625-21.414062 27.929688 1.429687 13.527343 13.203125 23.5625 26.785156 22.832031 13.578125-.726562 24.210937-11.960938 24.1875-25.5625 0-40.5-39.074219-51.199219-59.734375-51.199219-4.710938 0-8.53125 3.820313-8.53125 8.53125zm42.667969 51.203125c-4.714844 0-8.535157-3.820312-8.535157-8.535156 0-4.710938 3.820313-8.53125 8.535157-8.53125 4.710937 0 8.53125 3.820312 8.53125 8.53125 0 4.714844-3.820313 8.535156-8.53125 8.535156zm0 0"/><path d="m307.160156 281.601562c13.328125.003907 24.421875-10.230468 25.488282-23.515624 1.0625-13.285157-8.257813-25.160157-21.417969-27.277344 9.027343-5.648438 19.417969-8.738282 30.0625-8.941406 4.714843 0 8.535156-3.820313 8.535156-8.535157 0-4.710937-3.820313-8.53125-8.535156-8.53125-20.660157 0-59.734375 10.699219-59.734375 51.199219 0 14.136719 11.460937 25.601562 25.601562 25.601562zm8.53125-25.601562c0 4.714844-3.820312 8.535156-8.53125 8.535156-4.714844 0-8.535156-3.820312-8.535156-8.535156 0-4.710938 3.820312-8.53125 8.535156-8.53125 4.710938 0 8.53125 3.820312 8.53125 8.53125zm0 0"/><path d="m221.828125 384c0 25.308594 16.367187 25.601562 17.066406 25.601562 4.398438-.003906 8.070313-3.351562 8.488281-7.730468.414063-4.375-2.566406-8.351563-6.886718-9.183594-1.339844-2.6875-1.894532-5.699219-1.601563-8.6875 0-4.710938-3.820312-8.53125-8.535156-8.53125-4.710937 0-8.53125 3.820312-8.53125 8.53125zm0 0"/><path d="m273.027344 409.601562c.699218 0 17.066406-.292968 17.066406-25.601562 0-4.710938-3.820312-8.53125-8.535156-8.53125-4.710938 0-8.53125 3.820312-8.53125 8.53125.285156 2.988281-.265625 5.996094-1.597656 8.6875-4.316407.828125-7.296876 4.804688-6.882813 9.179688.414063 4.378906 4.082031 7.726562 8.480469 7.734374zm0 0"/><path d="m255.960938 341.332031c4.710937 0 8.53125-3.820312 8.53125-8.53125v-34.132812c0-4.714844-3.820313-8.535157-8.53125-8.535157-4.714844 0-8.535157 3.820313-8.535157 8.535157v34.132812c0 4.710938 3.820313 8.53125 8.535157 8.53125zm0 0"/></svg>