<?xml version="1.0" encoding="iso-8859-1"?>
<!-- Generator: Adobe Illustrator 19.0.0, SVG Export Plug-In . SVG Version: 6.00 Build 0)  -->
<svg version="1.1" id="Capa_1" xmlns="http://www.w3.org/2000/svg" xmlns:xlink="http://www.w3.org/1999/xlink" x="0px" y="0px"
	 viewBox="0 0 512 512" style="enable-background:new 0 0 512 512;" xml:space="preserve">
<g>
	<g>
		<path d="M448.086,61.178H298.42C293.893,48.414,283.764,38.107,271,33.58V0h-30v33.58c-12.764,4.527-22.893,14.834-27.42,27.598
			H63.914L0,253.571V256c0,41.355,33.645,75,75,75s75-33.911,75-75v-2.429L95.931,91h117.65c4.527,12.764,14.656,22.893,27.42,27.42
			V301h-30v123.294l-90,14.999V512h270v-72.707l-90-15V301h-30V118.42c12.764-4.527,22.893-14.656,27.42-27.42h117.65L362,253.571
			V256c0,41.355,33.645,75,75,75c41.355,0,75-33.645,75-75v-2.429L448.086,61.178z M75,301c-19.556,0-36.239-12.639-42.429-30.1
			h84.859C111.239,288.361,94.556,301,75,301z M114.203,241H35.797L75,123.127L114.203,241z M241,76c0-8.271,6.729-14.822,15-14.822
			S271,67.729,271,76s-6.729,15-15,15S241,84.271,241,76z M241,331h30v91h-30V331z M284.759,452L361,464.707V482H151v-17.293
			L227.246,452H284.759z M437,123.127L476.203,241h-78.407L437,123.127z M437,301c-19.556,0-36.239-12.639-42.429-30.1h84.859
			C473.239,288.361,456.556,301,437,301z"/>
	</g>
</g>
<g>
</g>
<g>
</g>
<g>
</g>
<g>
</g>
<g>
</g>
<g>
</g>
<g>
</g>
<g>
</g>
<g>
</g>
<g>
</g>
<g>
</g>
<g>
</g>
<g>
</g>
<g>
</g>
<g>
</g>
</svg>
