<?xml version="1.0" encoding="iso-8859-1"?>
<!-- Generator: Adobe Illustrator 19.0.0, SVG Export Plug-In . SVG Version: 6.00 Build 0)  -->
<svg version="1.1" id="Layer_1" xmlns="http://www.w3.org/2000/svg" xmlns:xlink="http://www.w3.org/1999/xlink" x="0px" y="0px"
	 viewBox="0 0 512 512" style="enable-background:new 0 0 512 512;" xml:space="preserve">
<g>
	<g>
		<path d="M203.069,91.914c-2.966-2.679-5.953-5.306-8.879-7.811c-3.19-2.731-7.991-2.357-10.721,0.832
			c-2.73,3.191-2.357,7.991,0.832,10.721c2.824,2.417,5.71,4.956,8.576,7.544c1.455,1.313,6.009,3.424,10.74-0.547
			C206.833,99.953,206.186,94.729,203.069,91.914z"/>
	</g>
</g>
<g>
	<g>
		<path d="M508.255,439.24c-15.01-19.49-23.87-35.299-33.25-52.036c-15.237-27.188-30.993-55.303-74.169-98.479
			c-20.293-20.292-38.539-35.903-57.235-48.973c-0.767-6.119-3.506-11.768-7.917-16.179l-11.393-11.393l10.737-10.737
			c1.262,0.169,7.312,1.329,14.568-1.849l5.931,13.29c2.845,6.376,8.946,10.336,15.923,10.337c0.001,0,0.001,0,0.002,0
			c7.256,0,13.643-4.369,16.269-11.128l41.359-106.429c2.119-5.454,1.452-11.335-1.832-16.132
			c-3.281-4.794-8.657-7.658-14.381-7.658c-2.163,0-4.306,0.407-6.37,1.208L300.067,124.44c-6.583,2.558-10.949,8.774-11.123,15.834
			s3.883,13.483,10.332,16.361l13.29,5.931c-1.984,4.858-2.562,10.158-1.744,15.276l-10.435,10.435l-11.801-11.8
			c-4.537-4.538-10.263-7.175-16.184-7.926c-16.405-26.781-51.415-59.662-52.619-60.849c-2.994-2.944-7.808-2.907-10.753,0.088
			c-2.944,2.994-2.906,7.808,0.088,10.753c1.175,1.156,30.315,28.803,46.721,52.987c-2.412,1.271-4.676,2.919-6.702,4.945
			l-23.778,23.779C192.018,139.038,121.534,80.135,118.419,77.55c-0.089-0.074-0.179-0.146-0.273-0.215
			C96.053,60.637,76.643,41.029,60.46,19.054c-0.317-0.431-1.162-1.577,0.226-2.935c1.395-1.367,2.57-0.461,2.956-0.164
			c20.367,15.684,37.404,25.232,53.88,34.466c16.094,9.019,31.295,17.539,49.786,31.532c3.349,2.536,8.119,1.874,10.651-1.475
			c2.535-3.349,1.875-8.118-1.475-10.651c-19.324-14.623-35.695-23.798-51.528-32.672c-16.737-9.38-32.546-18.24-52.036-33.249
			C65.836-1.55,56.43-0.997,50.049,5.251c-6.378,6.242-7.131,15.627-1.834,22.821c3.127,4.245,6.369,8.405,9.72,12.477V388.75
			c-4.21,0.828-8.155,2.88-11.247,5.972L6.408,435c-5.92,5.92-7.924,14.523-5.231,22.45c2.694,7.927,11.249,15.93,20.99,14.363
			l26.558-7.929l-8.333,25.96c-0.343,1.069-0.444,2.2-0.299,3.313c1.089,8.301,6.69,15.131,14.619,17.825
			c2.329,0.791,14.109,2.95,22.45-5.232l40.279-40.279c2.943-2.943,4.94-6.659,5.841-10.64h349.079
			c3.835,3.134,7.742,6.177,11.728,9.113c3.2,2.356,6.831,3.516,10.428,3.515c4.491,0,8.927-1.808,12.393-5.349
			C513.158,455.73,513.71,446.323,508.255,439.24z M324.93,234.325c2.381,2.38,3.692,5.567,3.692,8.972
			c0,3.406-1.311,6.591-3.692,8.971l-27.009,27.01c-2.381,2.38-5.567,3.691-8.972,3.691c-3.405,0-6.591-1.311-8.971-3.691
			l-11.393-11.393l44.953-44.953L324.93,234.325z M329.513,182.648c-3.745-3.745-4.747-9.2-3.031-13.872l11.689,5.215l5.216,11.689
			C338.714,187.395,333.259,186.394,329.513,182.648z M305.476,142.747c-1.126-0.502-1.343-1.419-1.326-2.101
			c0.017-0.68,0.278-1.585,1.427-2.032l106.429-41.357c0.305-0.119,1.907-0.626,2.654,0.159c1.045,1.098,0.351,2.466,0.244,2.738
			l-41.359,106.429c-0.458,1.18-1.392,1.427-2.094,1.427c-0.659,0-1.548-0.23-2.039-1.327l-16.41-36.773l20.505-20.505
			c2.969-2.97,2.969-7.784,0-10.753c-2.971-2.97-7.784-2.97-10.754,0l-20.504,20.504L305.476,142.747z M317.791,192.382
			c0.313,0.346,1.928,1.933,2.423,2.364L67.866,447.096c-0.361,0.362-1.579,1.068-2.532,0.116c-0.95-0.951-0.345-2.027,0.138-2.51
			L317.791,192.382z M232.882,214.241l27.009-27.01c4.948-4.945,12.996-4.948,17.944,0l11.8,11.8l-44.953,44.953l-11.801-11.8
			c-2.38-2.38-3.691-5.567-3.691-8.971C229.19,219.808,230.501,216.621,232.882,214.241z M73.142,57.644
			c10.982,11.434,22.906,22.04,35.688,31.712c3.498,2.932,77.157,65.137,106.636,124.838c-0.971,2.864-1.482,5.9-1.482,9.019
			c0,7.467,2.893,14.473,8.145,19.725l11.8,11.801L95.625,393.042l-22.483-3.321V57.644z M49.872,447.671l-30.215,9.021
			c-2.689-0.882-3.736-3.116-4.081-4.134c-0.398-1.171-1.04-4.179,1.586-6.805l40.279-40.279c1.472-1.474,3.585-2.171,5.643-1.866
			l19.146,2.829l-27.512,27.511C50.835,437.831,49.153,442.702,49.872,447.671z M122.53,439.626v-0.001l-0.363-2.455
			c-0.613-4.155-4.486-7.024-8.635-6.41c-4.155,0.613-7.024,4.479-6.41,8.634l1.431,9.682c0.305,2.061-0.393,4.171-1.867,5.644
			l-40.279,40.279c-2.626,2.625-5.635,1.984-6.804,1.586c-1.011-0.343-3.217-1.375-4.113-4.016l9.603-29.916
			c0.567,0.058,6.564,2.16,13.528-4.804l179.211-179.211l11.393,11.393c5.253,5.253,12.258,8.146,19.725,8.146
			c3.121,0,6.158-0.512,9.024-1.484c59.644,29.454,121.897,103.137,124.833,106.638c9.848,13.016,20.661,25.146,32.335,36.294
			H122.53z M496.041,451.475c-1.357,1.386-2.501,0.543-2.935,0.226c-33.669-24.703-58.422-57.871-58.495-57.959
			c-2.615-3.149-61.506-73.612-122.707-106.941l23.779-23.779c2.003-2.002,3.66-4.261,4.946-6.701
			c15.99,11.712,31.902,25.607,49.452,43.157c41.691,41.691,56.247,67.663,71.658,95.161c9.233,16.476,18.781,33.512,34.466,53.88
			C496.503,448.905,497.408,450.079,496.041,451.475z"/>
	</g>
</g>
<g>
</g>
<g>
</g>
<g>
</g>
<g>
</g>
<g>
</g>
<g>
</g>
<g>
</g>
<g>
</g>
<g>
</g>
<g>
</g>
<g>
</g>
<g>
</g>
<g>
</g>
<g>
</g>
<g>
</g>
</svg>
