<svg id="Layer_1" enable-background="new 0 0 512 512" height="512" viewBox="0 0 512 512" width="512" xmlns="http://www.w3.org/2000/svg"><g><g><path d="m505.988 72.786c-11.482-46.654-40.094-65.059-56.151-71.887-4.093-1.724-8.665-.93-11.931 2.072-3.259 2.997-4.431 7.477-3.053 11.711 8.286 25.211 13.809 56.744 4.463 69.633-2.046 2.82-13.201 12.499-70.87 18.66-4.89.522-9.741.978-14.455 1.376l-57.585-57.594c-10.797-10.799-25.151-16.746-40.416-16.746s-29.619 5.947-40.416 16.746l-14.627 14.63c-2.929 2.929-2.929 7.678 0 10.606 2.928 2.93 7.676 2.929 10.605 0l14.627-14.63c7.965-7.966 18.552-12.353 29.811-12.353s21.846 4.387 29.811 12.353l48.399 48.407c-8.184.488-15.204.791-20.241.972l-38.77-38.776c-5.205-5.205-11.844-7.957-19.2-7.957s-13.995 2.751-19.2 7.957l-38.77 38.776c-5.037-.182-12.056-.484-20.241-.972l11.08-11.082c2.929-2.929 2.929-7.678 0-10.606-2.928-2.929-7.676-2.929-10.605 0l-20.263 20.268c-4.714-.398-9.565-.854-14.455-1.376-57.669-6.161-68.825-15.84-70.87-18.659-9.347-12.889-3.823-44.422 4.469-69.653 1.372-4.214.2-8.694-3.06-11.691-3.266-3.003-7.837-3.798-11.954-2.062-16.033 6.818-44.645 25.223-56.127 71.876-5.328 21.645-10.961 53.939 1.586 84.369 1.193 2.894 3.988 4.643 6.935 4.643.952 0 1.921-.183 2.856-.568 3.828-1.579 5.652-5.963 4.074-9.793-6.48-15.714-8.034-33.77-4.731-55.815 13.58-8.274 27.25-12.726 38.072-15.114 1.235 4.682 3.09 8.962 5.739 12.616 3.867 5.331 12.273 12.3 39.11 18.249-15.572 14.817-37.226 40.352-49.023 75.936-4.953-3.611-9.378-7.463-13.265-11.555-2.853-3.004-7.599-3.125-10.601-.273-3.003 2.852-3.125 7.6-.273 10.603 6.618 6.968 14.545 13.293 23.738 18.974.477.381 1.007.704 1.58.964.943.566 1.9 1.124 2.868 1.677l-7.884 7.886c-10.798 10.799-16.744 25.155-16.744 40.423s5.946 29.623 16.744 40.422l122.336 122.356 3.648 19.843c3.48 18.943 13.38 36.166 27.926 48.724 3.159 6.655 7.893 11.975 14.185 15.908 9.538 5.964 22.604 8.742 41.121 8.742s31.583-2.778 41.121-8.742c6.292-3.934 11.026-9.253 14.185-15.908 14.546-12.557 24.447-29.781 27.926-48.723l3.648-19.844 89.926-89.941c2.929-2.929 2.929-7.678 0-10.606-2.928-2.929-7.676-2.929-10.605 0l-74.544 74.556 4.779-25.996 91.574-91.59c5.205-5.205 7.956-11.845 7.956-19.203s-2.751-13.998-7.956-19.203l-15.848-15.851c5.28-1.909 10.299-3.958 15.084-6.13l11.366 11.367c7.965 7.966 12.351 18.555 12.351 29.816s-4.386 21.85-12.351 29.816l-9.792 9.793c-2.929 2.929-2.929 7.678 0 10.606 1.464 1.464 3.383 2.197 5.302 2.197s3.838-.732 5.302-2.197l9.792-9.793c10.798-10.799 16.744-25.154 16.744-40.422s-5.946-29.624-16.744-40.423l-7.912-7.913c.883-.505 1.758-1.014 2.62-1.53.781-.317 1.484-.756 2.095-1.288 14.506-9.019 25.875-19.665 34.006-31.92 22.637-34.115 16.534-73.493 9.973-100.144zm-485.464 3.72c.011-.046.02-.09.032-.136 8.213-33.372 26.11-49.823 39.65-57.74-3.986 13.715-7.804 31.223-7.393 46.962-9.259 1.959-20.529 5.275-32.289 10.914zm470.901-.135c.011.046.021.09.032.135-11.76-5.64-23.03-8.955-32.289-10.914.411-15.742-3.409-33.251-7.393-46.959 13.552 7.926 31.439 24.377 39.65 57.738zm-121.482 41.528c8.862-.945 16.742-1.976 23.765-3.069 14.052 11.7 41.857 39.065 54.554 80.766-17.929 9.943-40.819 17.546-68.544 22.738l2.096-11.403c4.554-24.79-2.083-50.113-18.21-69.477-5.693-6.835-12.333-12.636-19.646-17.288 8.134-.569 16.994-1.308 25.985-2.267zm-122.548-39.327c2.364-2.365 5.256-3.563 8.595-3.563s6.231 1.199 8.595 3.563l28.411 28.416h-74.014zm-129.122 36.258c7.023 1.094 14.904 2.124 23.765 3.069 8.991.959 17.851 1.698 25.985 2.267-7.313 4.652-13.953 10.452-19.646 17.288-16.127 19.364-22.765 44.688-18.21 69.478l2.095 11.396c-27.708-5.19-50.629-12.784-68.55-22.708 12.692-41.715 40.506-69.089 54.561-80.79zm16.886 119.262 19.617 106.712-76.19-76.202c-2.364-2.365-3.563-5.257-3.563-8.597s1.199-6.232 3.563-8.597l21.274-21.277c10.896 3.127 22.666 5.784 35.299 7.961zm-77.78 51.729c-7.965-7.966-12.351-18.555-12.351-29.816 0-11.262 4.386-21.85 12.351-29.816l11.336-11.338c4.785 2.167 9.824 4.202 15.106 6.109l-15.84 15.842c-5.205 5.205-7.956 11.846-7.956 19.203s2.751 13.997 7.956 19.203l91.573 91.587 4.779 25.996zm198.611 211.179c-23.721 0-36.669-4.734-42.03-16.55-.14-.435-.318-.859-.537-1.266-1.686-4.296-2.464-9.463-2.464-15.604 0-17.378 6.68-38.603 16.425-54.07 6.028 11.437 16.05 20.979 28.606 20.979s22.579-9.542 28.606-20.979c9.745 15.467 16.425 36.692 16.425 54.07 0 6.141-.778 11.308-2.464 15.604-.22.407-.398.831-.537 1.266-5.361 11.816-18.309 16.55-42.03 16.55zm-19.9-110.76c0-4.704 0-10.558 19.901-10.558s19.901 5.854 19.901 10.558c0 1.82-.227 3.746-.637 5.706-.124.397-.22.801-.276 1.211-2.683 10.871-10.885 22.332-18.987 22.332s-16.304-11.461-18.987-22.332c-.056-.41-.153-.814-.276-1.211-.413-1.959-.639-3.886-.639-5.706zm79.795 72.574c-1.267-23.093-11.457-49.879-25.451-66.812.294-1.99.454-3.926.454-5.761 0-25.558-26.267-25.558-34.898-25.558s-34.898 0-34.898 25.558c0 1.835.16 3.771.454 5.761-13.994 16.933-24.184 43.719-25.451 66.812-4.159-7.02-7.093-14.767-8.586-22.899l-42.592-231.695c-3.747-20.397 1.714-41.234 14.983-57.166 13.268-15.93 32.767-25.067 53.497-25.067h85.185c20.73 0 40.23 9.137 53.497 25.067 13.27 15.932 18.731 36.769 14.983 57.165l-42.592 231.697c-1.492 8.132-4.425 15.878-8.585 22.898zm117.51-211.406c2.364 2.365 3.563 5.257 3.563 8.597s-1.199 6.232-3.563 8.597l-76.19 76.202 19.617-106.713c12.635-2.178 24.395-4.84 35.288-7.971zm50.125-82.771c-5.558 8.376-12.964 15.921-22.164 22.633-11.8-35.565-33.444-61.087-49.011-75.899 26.837-5.949 35.243-12.918 39.111-18.25 2.65-3.654 4.504-7.934 5.739-12.615 10.821 2.388 24.491 6.84 38.069 15.113 4.234 28.482.393 50.725-11.744 69.018z"/><path d="m203.764 268.019-13.243-10c-3.306-2.495-8.007-1.839-10.503 1.467-2.495 3.306-1.839 8.009 1.467 10.505l13.243 10c1.353 1.021 2.939 1.515 4.512 1.515 2.272 0 4.516-1.028 5.991-2.981 2.495-3.307 1.838-8.01-1.467-10.506z"/><path d="m331.963 259.486c-2.495-3.305-7.198-3.962-10.503-1.467l-13.243 10c-3.305 2.496-3.962 7.199-1.467 10.505 1.474 1.953 3.719 2.981 5.991 2.981 1.573 0 3.16-.494 4.512-1.515l13.243-10c3.305-2.495 3.962-7.198 1.467-10.504z"/></g></g></svg>